<?xml version="1.0" encoding="utf-8"?>
<!-- Generator: Adobe Illustrator 16.0.0, SVG Export Plug-In . SVG Version: 6.00 Build 0)  -->
<!DOCTYPE svg PUBLIC "-//W3C//DTD SVG 1.1//EN" "http://www.w3.org/Graphics/SVG/1.1/DTD/svg11.dtd">
<svg version="1.1" id="Calque_1" xmlns="http://www.w3.org/2000/svg" xmlns:xlink="http://www.w3.org/1999/xlink" x="0px" y="0px"
	 width="130px" height="154.133px" viewBox="0 0 130 154.133" enable-background="new 0 0 130 154.133" xml:space="preserve">
<path fill="#FFFFFF" d="M65,25.866C29.1,25.866,0,54.58,0,90c0,35.42,29.1,64.134,65,64.134c35.897,0,65-28.714,65-64.134
	C130,54.58,100.897,25.866,65,25.866z M65,38.443c-2.237,0-4.052-1.814-4.052-4.052c0-2.237,1.815-4.051,4.052-4.051
	s4.05,1.813,4.05,4.051C69.05,36.629,67.237,38.443,65,38.443z"/>
<line fill="none" stroke="#000000" stroke-linecap="round" stroke-miterlimit="10" x1="65" y1="32.108" x2="65" y2="0"/>
<g>
	<g>
		<g>
			<g>
				<path d="M25.429,63.818v43.92h-5.52V69.757l-9.66,2.94v-3.839l9.66-5.04H25.429z"/>
			</g>
			<g>
				<path d="M31.769,97.777V73.898c0-3.241,0.98-5.73,2.94-7.47c1.959-1.74,4.5-2.61,7.62-2.61h9.84c5.12,0,8.319,2.061,9.6,6.18
					c0.36,1.161,0.54,2.42,0.54,3.78v24c0,3.4-0.891,5.911-2.67,7.531c-1.78,1.619-4.29,2.43-7.529,2.43h-9.841
					c-3.12,0-5.65-0.811-7.59-2.43C32.738,103.688,31.769,101.177,31.769,97.777z M37.289,97.358c0,1.8,0.529,3.089,1.59,3.87
					c1.06,0.779,2.37,1.17,3.93,1.17h8.761c3.479,0,5.22-1.659,5.22-4.98v-23.28c0-3.32-1.721-4.98-5.16-4.98h-8.88
					c-1.881,0-3.261,0.48-4.14,1.44c-0.881,0.96-1.32,2.14-1.32,3.54V97.358z"/>
			</g>
		</g>
		<g>
			<g>
				<path d="M104.529,107.619H98.28l-7.812-13.625l-7.16,13.625h-6.119l10.285-19.5h6.054L104.529,107.619z"/>
			</g>
			<g>
				<path d="M93.528,84.323h-6.054l-10.285-19.5h6.119l7.16,13.675l7.812-13.675h6.249L93.528,84.323z"/>
			</g>
		</g>
		<rect x="68.751" y="64.785" width="6" height="43"/>
		<rect x="107.751" y="64.785" width="6" height="43"/>
	</g>
	<g>
		<path fill="#231F20" d="M23.83,112.888l-1.961,0.59v-0.461l2.01-0.863l0.671,0.002v9.227l-0.72-0.002V112.888z"/>
		<path fill="#231F20" d="M27.367,120.857c-0.406-0.346-0.608-0.879-0.608-1.602v-4.961c0-0.688,0.204-1.215,0.614-1.584
			c0.409-0.367,0.945-0.551,1.606-0.549l1.726,0.008c0.729,0.002,1.271,0.195,1.626,0.583c0.355,0.386,0.534,0.907,0.534,1.562
			v4.963c0,0.721-0.191,1.252-0.571,1.596c-0.381,0.344-0.91,0.513-1.589,0.51l-1.737-0.005
			C28.306,121.375,27.771,121.203,27.367,120.857z M30.569,120.737c1.05,0.003,1.576-0.509,1.576-1.538v-4.838
			c0-0.504-0.131-0.889-0.392-1.15c-0.26-0.262-0.647-0.395-1.16-0.396l-1.515-0.004c-0.496-0.002-0.887,0.132-1.172,0.4
			c-0.286,0.268-0.428,0.647-0.428,1.137l-0.001,4.836c0,0.498,0.143,0.881,0.428,1.146c0.286,0.268,0.681,0.4,1.186,0.402
			L30.569,120.737z"/>
		<path fill="#231F20" d="M41.938,121.281l-0.918-7.951l-2.339,7.94l-0.661-0.003l-2.373-7.906l-0.883,7.896l-0.686-0.002l1.017-9
			l0.771,0.003l2.484,8.066l2.449-8.051l0.783,0.003l1.04,9.006L41.938,121.281z"/>
		<path fill="#231F20" d="M44.643,121.007c-0.342-0.223-0.514-0.672-0.514-1.351v-5.644c0-0.604,0.159-1.044,0.478-1.316
			c0.318-0.273,0.71-0.408,1.175-0.406c0.433,0.001,1.393,0.024,2.877,0.069l0.869,0.04v0.552l-3.563-0.011
			c-0.358-0.002-0.635,0.094-0.831,0.286c-0.196,0.19-0.294,0.482-0.295,0.875v2.392l4.175,0.074v0.527l-4.175,0.049v2.379
			c0,0.459,0.111,0.766,0.331,0.922c0.22,0.155,0.514,0.234,0.881,0.234l3.477,0.012v0.553c-1.077,0.045-2.27,0.078-3.575,0.099
			C45.423,121.34,44.985,121.229,44.643,121.007z"/>
		<path fill="#231F20" d="M51.474,112.308l0.6,0.002l4.971,7.779v-7.763l0.71,0.001l-0.001,9.004l-0.587-0.002l-4.982-7.781
			l-0.001,7.766l-0.71-0.002L51.474,112.308z"/>
		<path fill="#231F20" d="M61.634,112.978l-2.877-0.009v-0.638l6.464,0.021v0.638l-2.876-0.01l-0.001,8.367l-0.71-0.004V112.978z"/>
		<path fill="#231F20" d="M66.408,112.357l0.71,0.002l-0.001,9.002l-0.71-0.001L66.408,112.357z"/>
		<path fill="#231F20" d="M70.338,121.121c-0.475-0.218-0.833-0.652-1.078-1.303c-0.244-0.652-0.366-1.619-0.366-2.902
			c0-1.284,0.123-2.259,0.372-2.925c0.25-0.665,0.614-1.114,1.097-1.346c0.481-0.231,1.126-0.345,1.934-0.343
			c0.832,0.003,1.487,0.121,1.965,0.355c0.477,0.234,0.837,0.685,1.077,1.348c0.24,0.662,0.361,1.639,0.361,2.932
			c0,1.284-0.123,2.251-0.367,2.9c-0.245,0.649-0.604,1.08-1.078,1.297c-0.473,0.214-1.126,0.321-1.958,0.318
			C71.463,121.449,70.811,121.338,70.338,121.121z M73.894,120.538c0.371-0.188,0.647-0.556,0.826-1.108
			c0.18-0.551,0.27-1.383,0.27-2.494c0-1.161-0.09-2.025-0.27-2.59c-0.179-0.564-0.455-0.939-0.826-1.125
			c-0.371-0.185-0.904-0.278-1.598-0.281c-0.66-0.002-1.178,0.089-1.548,0.271c-0.372,0.184-0.655,0.561-0.852,1.132
			c-0.196,0.572-0.293,1.431-0.293,2.575c0,1.121,0.083,1.955,0.25,2.504c0.167,0.548,0.437,0.917,0.808,1.105
			c0.371,0.189,0.917,0.285,1.635,0.287C72.988,120.816,73.521,120.724,73.894,120.538z"/>
		<path fill="#231F20" d="M77.658,112.393l0.599,0.001l4.971,7.78v-7.763l0.709,0.002v9.003l-0.588-0.003l-4.981-7.779v7.764
			l-0.711-0.002L77.658,112.393z"/>
		<path fill="#231F20" d="M85.222,112.417l0.747,0.003l2.081,8.091l2.388-8.076l0.759,0.002l2.374,8.091l2.094-8.076l0.734,0.003
			l-2.363,8.995l-0.808-0.004l-2.411-8.065l-2.424,8.052l-0.808-0.004L85.222,112.417z"/>
		<path fill="#231F20" d="M98.075,121.179c-0.343-0.222-0.515-0.672-0.515-1.351v-5.642c0.001-0.605,0.159-1.044,0.479-1.317
			c0.318-0.272,0.71-0.409,1.175-0.407c0.433,0.002,1.392,0.024,2.877,0.07l0.869,0.04v0.552l-3.563-0.012
			c-0.358-0.002-0.636,0.095-0.832,0.285c-0.196,0.192-0.293,0.483-0.294,0.877v2.391l4.175,0.076v0.526l-4.175,0.048v2.379
			c0,0.459,0.11,0.766,0.33,0.922c0.221,0.157,0.515,0.234,0.882,0.237l3.477,0.009v0.554c-1.078,0.046-2.27,0.077-3.575,0.099
			C98.854,121.513,98.418,121.402,98.075,121.179z"/>
		<path fill="#231F20" d="M104.71,112.48l3.172,0.011c1.493,0.005,2.239,0.771,2.238,2.301c0,0.539-0.122,0.987-0.366,1.341
			c-0.245,0.355-0.548,0.586-0.906,0.69c0.399,0.091,0.766,0.313,1.095,0.666c0.331,0.354,0.497,0.856,0.497,1.511
			c0,0.923-0.209,1.572-0.624,1.942c-0.417,0.37-1.029,0.554-1.837,0.552l-3.269-0.012V112.48z M107.942,116.563
			c0.44,0.001,0.799-0.161,1.077-0.487c0.276-0.326,0.416-0.76,0.416-1.299c0-1.096-0.522-1.646-1.567-1.648l-2.447-0.009
			l-0.001,3.436L107.942,116.563z M107.967,120.856c0.579,0.002,1.022-0.14,1.328-0.427c0.306-0.283,0.459-0.799,0.459-1.543
			c0-0.539-0.17-0.965-0.508-1.276c-0.34-0.313-0.766-0.469-1.279-0.471l-2.547-0.009v3.717L107.967,120.856z"/>
	</g>
</g>
</svg>
