<?xml version="1.0" encoding="UTF-8" standalone="no"?>
<svg
   xmlns:dc="http://purl.org/dc/elements/1.1/"
   xmlns:cc="http://creativecommons.org/ns#"
   xmlns:rdf="http://www.w3.org/1999/02/22-rdf-syntax-ns#"
   xmlns:svg="http://www.w3.org/2000/svg"
   xmlns="http://www.w3.org/2000/svg"
   xmlns:sodipodi="http://sodipodi.sourceforge.net/DTD/sodipodi-0.dtd"
   xmlns:inkscape="http://www.inkscape.org/namespaces/inkscape"
   id="svg2575"
   sodipodi:version="0.32"
   inkscape:version="1.0.1 (3bc2e813f5, 2020-09-07)"
   width="207"
   height="98"
   xml:space="preserve"
   sodipodi:docname="colombbus.svg"
   inkscape:output_extension="org.inkscape.output.svg.inkscape"
   version="1.1"><metadata
     id="metadata2580"><rdf:RDF><cc:Work
         rdf:about=""><dc:format>image/svg+xml</dc:format><dc:type
           rdf:resource="http://purl.org/dc/dcmitype/StillImage" /><dc:title></dc:title></cc:Work></rdf:RDF></metadata><defs
     id="defs2578"><inkscape:perspective
       sodipodi:type="inkscape:persp3d"
       inkscape:vp_x="0 : -119.91339 : 1"
       inkscape:vp_y="0 : 1000 : 0"
       inkscape:vp_z="744.09448 : -119.91339 : 1"
       inkscape:persp3d-origin="372.04724 : -295.30709 : 1"
       id="perspective2582" /></defs><sodipodi:namedview
     inkscape:window-height="1016"
     inkscape:window-width="1920"
     inkscape:pageshadow="2"
     inkscape:pageopacity="0.0"
     guidetolerance="10.0"
     gridtolerance="10.0"
     objecttolerance="10.0"
     borderopacity="1.0"
     bordercolor="#666666"
     pagecolor="#ffffff"
     id="base"
     showgrid="false"
     inkscape:zoom="5.5942029"
     inkscape:cx="103.5"
     inkscape:cy="49"
     inkscape:window-x="0"
     inkscape:window-y="0"
     inkscape:current-layer="g2584"
     inkscape:document-rotation="0"
     fit-margin-top="0"
     fit-margin-left="0"
     fit-margin-right="0"
     fit-margin-bottom="0"
     inkscape:window-maximized="1" /><g
     id="g2584"
     inkscape:groupmode="layer"
     inkscape:label="colombbus DEF"
     transform="matrix(1.25,0,0,-1.25,-237.13122,513.44032)"><g
       id="g2586"
       transform="matrix(0.3450171,0,0,-0.3450171,124.25352,265.12203)"><path
         d="m 302.52783,-262.2627 c -10.79638,0 -19.51123,-9.00097 -19.51123,-19.79687 0,0 0,-9.56641 0,-9.56641 0,-10.98974 9.0918,-19.89306 20.17334,-19.89306 6.0625,0 11.45899,2.84033 15.05762,7.29394 0.85498,1.04346 0.85498,2.27149 -0.28076,3.12598 0,0 -4.64209,3.41308 -4.64209,3.41308 -0.8545,0.56641 -1.89405,0.66309 -2.84033,-0.66748 -1.80176,-2.46044 -4.5459,-3.88134 -7.76807,-3.88134 -5.58887,0 -9.75342,4.92627 -9.75342,10.51806 0,0 0,9.56348 0,9.56348 0,5.68262 4.35742,10.60937 10.03857,10.60937 3.50293,0 6.62793,-1.80078 8.3335,-4.83007 0.66162,-1.32911 1.98975,-1.61426 3.12549,-0.94727 0,0 4.64209,2.84082 4.64209,2.84082 0.7583,0.47266 1.13525,1.6084 0.66162,2.46387 -3.50244,5.77246 -9.94189,9.7539 -17.23633,9.7539 z"
         style="fill:#17559e;fill-opacity:1;fill-rule:nonzero;stroke:none"
         id="path2588" /><path
         d="m 351.58887,-291.62598 c 0,-5.68261 -4.35694,-10.60888 -10.03858,-10.60888 -5.58935,0 -9.66162,4.92627 -9.66162,10.51806 0,0 0,9.56348 0,9.56348 0,5.68262 4.26563,10.60937 9.94678,10.60937 5.58496,0 9.75342,-4.92675 9.75342,-10.51562 0,0 0,-9.56641 0,-9.56641 z m -10.22754,29.36328 c -10.79639,0 -19.51074,-9.00097 -19.51074,-19.79687 0,0 0,-9.56641 0,-9.56641 0,-10.98974 9.18798,-19.89306 20.17334,-19.89306 10.79687,0 19.51123,8.99951 19.51123,19.80224 0,0 0,9.56348 0,9.56348 0,10.9873 -9.0918,19.89062 -20.17383,19.89062 z"
         style="fill:#17559e;fill-opacity:1;fill-rule:nonzero;stroke:none"
         id="path2590" /><path
         d="m 374.7915,-263.49512 c 0,0 -4.16894,0 -4.16894,0 -1.70117,0 -2.84033,-1.51758 -2.84033,-2.74902 0,0 0,-57.68066 0,-57.68066 0,-2.08252 0.7583,-3.02881 2.74804,-3.02881 0,0 4.73438,0 4.73438,0 1.89404,0 2.46387,1.32373 2.46387,2.93261 0,0 0,57.87452 0,57.87452 0,1.51562 -1.13575,2.65136 -2.93702,2.65136 z"
         style="fill:#17559e;fill-opacity:1;fill-rule:nonzero;stroke:none"
         id="path2592" /><path
         d="m 414.13721,-291.62598 c 0,-5.68261 -4.35791,-10.60888 -10.03907,-10.60888 -5.58886,0 -9.66113,4.92627 -9.66113,10.51806 0,0 0,9.56348 0,9.56348 0,5.68262 4.26465,10.60937 9.9458,10.60937 5.58496,0 9.7544,-4.92675 9.7544,-10.51562 0,0 0,-9.56641 0,-9.56641 z m -10.22754,29.36328 c -10.79688,0 -19.51172,-9.00097 -19.51172,-19.79687 0,0 0,-9.56641 0,-9.56641 0,-10.98974 9.18848,-19.89306 20.17383,-19.89306 10.79687,0 19.51123,8.99951 19.51123,19.80224 0,0 0,9.56348 0,9.56348 0,10.9873 -9.09131,19.89062 -20.17334,19.89062 z"
         style="fill:#17559e;fill-opacity:1;fill-rule:nonzero;stroke:none"
         id="path2594" /><path
         d="m 496.62891,-263.49512 c 0,0 -4.16504,0 -4.16504,0 -1.70508,0 -2.84473,-1.51758 -2.84473,-2.74902 0,0 0,-25.38184 0,-25.38184 0,-5.68261 -4.26074,-10.60888 -9.94238,-10.60888 -5.58887,0 -9.75293,4.92627 -9.75293,10.51806 0,0 0,25.57032 0,25.57032 0,1.51562 -1.23242,2.65136 -2.9375,2.65136 0,0 -4.26074,0 -4.26074,0 -1.70508,0 -2.84082,-1.51758 -2.84082,-2.74902 0,0 0,-25.38184 0,-25.38184 0,-5.68261 -4.26465,-10.60888 -9.94629,-10.60888 -5.68164,0 -9.75293,4.92627 -9.75293,10.51806 0,0 0,25.57032 0,25.57032 0,1.51562 -1.23242,2.65136 -2.9375,2.65136 0,0 -4.26075,0 -4.26075,0 -1.70507,0 -2.74902,-1.51758 -2.74902,-2.74902 0,0 0,-25.38184 0,-25.38184 0,-10.98974 9.09277,-19.89306 20.07715,-19.89306 5.01953,0 9.56934,1.89355 12.97559,5.11572 0.94726,0.85059 2.17871,0.94678 3.31445,0 3.59863,-3.12549 8.33789,-5.11572 13.44922,-5.11572 10.79687,0 19.51074,8.99951 19.51074,19.80224 0,0 0,25.57032 0,25.57032 0,1.51562 -1.13574,2.65136 -2.93652,2.65136 z"
         style="fill:#17559e;fill-opacity:1;fill-rule:nonzero;stroke:none"
         id="path2596" /><path
         d="m 534.79688,-291.7168 c 0,-5.59179 -4.07129,-10.51806 -9.75293,-10.51806 -3.50684,0 -8.3379,1.79736 -8.3379,7.48486 0,0 0,19.50977 0,19.50977 0,1.61035 1.04395,3.12597 2.65235,3.22363 0,0 3.0332,0.47265 5.49219,0.47265 5.68554,0 9.94629,-4.92675 9.94629,-10.60937 0,0 0,-9.56348 0,-9.56348 z m -9.46778,29.4541 c -4.3584,0 -15.62793,-1.23242 -15.62793,-1.23242 -1.70508,-0.0976 -2.93652,-1.13574 -2.93652,-2.65136 0,0 0,-57.87452 0,-57.87452 0,-1.60888 0.56933,-2.93261 2.46289,-2.93261 0,0 4.73437,0 4.73437,0 1.99122,0 2.74414,0.94629 2.74414,3.02881 0,0 0,11.36669 0,11.36669 0,1.22754 0.57032,2.45899 2.37208,1.89405 1.79687,-0.47412 3.69042,-0.85498 5.58496,-0.85498 10.98437,0 20.17285,8.90332 20.17285,19.89306 0,0 0,9.56641 0,9.56641 0,10.7959 -8.71387,19.79687 -19.50684,19.79687 z"
         style="fill:#17559e;fill-opacity:1;fill-rule:nonzero;stroke:none"
         id="path2598" /><path
         d="m 579.0293,-291.7168 c 0,-5.59179 -4.07325,-10.51806 -9.75391,-10.51806 -3.50684,0 -8.33691,1.79736 -8.33691,7.48486 0,0 0,19.50977 0,19.50977 0,1.61035 1.04297,3.12597 2.65136,3.22363 0,0 3.03418,0.47265 5.49317,0.47265 5.68554,0 9.94629,-4.92675 9.94629,-10.60937 0,0 0,-9.56348 0,-9.56348 z m -9.46875,29.4541 c -4.35742,0 -15.62793,-1.23242 -15.62793,-1.23242 -1.70508,-0.0976 -2.93653,-1.13574 -2.93653,-2.65136 0,0 0,-57.87452 0,-57.87452 0,-1.60888 0.57032,-2.93261 2.46387,-2.93261 0,0 4.73438,0 4.73438,0 1.98925,0 2.74414,0.94629 2.74414,3.02881 0,0 0,11.36669 0,11.36669 0,1.22754 0.56933,2.45899 2.37109,1.89405 1.79785,-0.47412 3.69043,-0.85498 5.58398,-0.85498 10.98633,0 20.17481,8.90332 20.17481,19.89306 0,0 0,9.56641 0,9.56641 0,10.7959 -8.71484,19.79687 -19.50781,19.79687 z"
         style="fill:#17559e;fill-opacity:1;fill-rule:nonzero;stroke:none"
         id="path2600" /><path
         d="m 614.64453,-262.92578 c -10.79687,0 -19.51172,-9 -19.51172,-19.79688 0,0 0,-25.57422 0,-25.57422 0,-1.51708 1.23145,-2.65234 2.9375,-2.65234 0,0 4.26074,0 4.26074,0 1.70411,0 2.83985,1.5166 2.83985,2.74414 0,0 0,25.3916 0,25.3916 0,5.67969 4.26562,10.22657 9.94726,10.22657 5.58789,0 9.75293,-4.54688 9.75293,-10.13575 0,0 0,-25.57422 0,-25.57422 0,-1.51708 1.13575,-2.65234 2.93653,-2.65234 0,0 4.16894,0 4.16894,0 1.70117,0 2.84082,1.5166 2.84082,2.74414 0,0 0,25.3916 0,25.3916 0,11.07715 -9.09179,19.8877 -20.17285,19.8877 z"
         style="fill:#17559e;fill-opacity:1;fill-rule:nonzero;stroke:none"
         id="path2602" /><path
         d="m 653.28613,-262.2627 c -5.20703,-0.19043 -9.84961,-2.93847 -12.12109,-6.44043 -0.56934,-0.94726 -0.66602,-2.17773 0.47363,-3.0332 0,0 4.63867,-3.12597 4.63867,-3.12597 1.04297,-0.75391 2.46387,-0.66309 3.22168,0.38183 0.75879,1.03906 2.27051,2.08203 4.16407,2.17871 3.12597,0.0908 5.77734,-2.46387 5.875,-5.49219 0.0918,-3.12597 -2.65235,-5.96777 -5.40039,-6.06445 -7.76368,-0.2832 -13.82618,-6.72265 -13.542,-14.39892 0.28418,-7.76954 6.72461,-13.82764 14.48828,-13.54639 4.16895,0.0962 8.24024,2.46289 9.84961,4.64258 0.66602,0.75781 0.57032,1.98925 -0.47363,2.93603 0,0 -3.59863,3.31397 -3.59863,3.31397 -1.13574,1.04345 -2.45899,1.04345 -3.59863,-0.0962 -0.47364,-0.37647 -1.32422,-0.94629 -2.55567,-1.03858 -2.27148,-0.0967 -4.16894,1.79736 -4.26074,4.07422 -0.0967,2.37012 1.89355,4.07617 3.97559,4.16699 8.71484,0.28516 15.53125,7.67285 15.25097,16.38672 -0.28515,8.61817 -7.67187,15.53125 -16.38672,15.15527 z"
         style="fill:#17559e;fill-opacity:1;fill-rule:nonzero;stroke:none"
         id="path2604" /><path
         d="m 402.1123,-314.49561 c 0,0 4.16456,0 4.16456,0 1.80175,0 2.93652,-1.13574 2.93652,-2.65234 0,0 0,-5.86377 0,-5.86377 0.009,0 0.0215,0.004 0.0293,0.004 0,0 0,-10.09033 0,-10.09033 0,-15.16309 -3.80323,-19.05372 -30.29102,-25.31446 0,0 -161.99414,-50.5083 -161.99414,-50.5083 -20.61719,-4.93115 -31.02881,-0.72119 -26.00098,22.72022 0,0 35.78662,151.86865 35.78662,151.86865 5.57618,29.05176 12.44288,29.43359 29.71729,27.41504 0,0 132.50439,-24.23145 132.50439,-24.23145 19.68653,-3.5 20.10205,-5.88379 20.27393,-23.51269 0,0 0.004,0 0.004,0 0,0 0,-1.56739 0,-2.3086 0,-1.6748 -0.54834,-2.03711 -1.68799,-2.03711 -2.3208,0 -6.05811,0 -6.56934,0 -1.07275,0 -1.5918,0.83106 -1.5918,2.21289 0,0.73731 0,2.13282 0,2.13282 0,0 -0.0635,0.51172 -0.0635,0.51172 0,8.82226 -1.75,8.96972 -18.44727,10.79296 0,0 -120.3164,10.12891 -120.3164,10.12891 -4.78028,0.28516 -8.24952,-3.73047 -9.24268,-9.80469 0,0 -23.81006,-127.38525 -23.81006,-127.38525 -1.99023,-6.97119 1.14795,-11.45459 6.7666,-9.96729 0,0 149.56494,37.83887 149.56494,37.83887 12.66456,3.02442 15.41846,2.98096 15.41846,13.73779 0,0 0,8.70264 0,8.70264 0,0 0.004,0 0.004,0 0,0 0,2.86182 0,2.86182 0,1.23144 1.13965,2.74804 2.84472,2.74804 z"
         style="fill:#bfbebf;fill-opacity:1;fill-rule:nonzero;stroke:none"
         id="path2606" /><path
         d="m 409.38916,-291.95996 c 0,-2.94141 -2.25635,-5.49365 -5.19727,-5.49365 -2.89355,0 -5.00195,2.55224 -5.00195,5.44677 0,0 0,10.33204 0,10.33204 0,2.94238 2.20801,5.49316 5.14893,5.49316 2.8916,0 5.05029,-2.55078 5.05029,-5.44434 0,0 0,-10.33398 0,-10.33398 z"
         style="fill:#bfbebf;fill-opacity:1;fill-rule:nonzero;stroke:none"
         id="path2608" /></g></g></svg>
